<svg xmlns="http://www.w3.org/2000/svg" width="120.918" height="23.935" viewBox="0 0 120.918 23.935">
  <defs>
    <style>
      .cls-1 {
        fill: #fff;
      }
    </style>
  </defs>
  <path id="Shape" class="cls-1" d="M119.43,23.935a1.515,1.515,0,0,1,0-3.029h.006a1.515,1.515,0,0,1-.006,3.029Zm0-2.795a1.282,1.282,0,0,0,.006,2.56h.011a1.151,1.151,0,0,0,.847-.373,1.315,1.315,0,0,0,.348-.9,1.248,1.248,0,0,0-1.206-1.283ZM46.744,23.92c-4.806,0-7.347-2.337-7.347-6.758V13.891A6.417,6.417,0,0,1,40.846,9.4c1.141-1.239,2.988-1.868,5.489-1.868s4.351.624,5.488,1.855a6.341,6.341,0,0,1,1.448,4.5v3.272H44.293v.329c0,1.824.641,2.351,2.858,2.351a28.677,28.677,0,0,0,5.711-.535V23.29A25.67,25.67,0,0,1,46.744,23.92Zm-.409-12.707c-1.81,0-2.042,1.092-2.042,2.043v.635h4.082v-.635C48.375,12.3,48.143,11.213,46.336,11.213ZM33.053,23.92c-4.806,0-7.346-2.337-7.346-6.758V14.3c0-4.426,2.54-6.766,7.346-6.766a21.856,21.856,0,0,1,4.9.633v3.981a23.56,23.56,0,0,0-4.49-.531,3.6,3.6,0,0,0-2.252.475,2.211,2.211,0,0,0-.606,1.873v3.525c0,1.824.641,2.351,2.857,2.351a23.438,23.438,0,0,0,4.49-.535V23.29A21.975,21.975,0,0,1,33.053,23.92ZM61.4,23.913a37,37,0,0,1-6.493-.622V1.227L59.8.41V8.128a11.034,11.034,0,0,1,3.673-.592c2.335,0,3.825.489,4.69,1.538a6.615,6.615,0,0,1,1.019,4.183v3.981c0,2.316-.414,3.746-1.386,4.785C66.608,23.295,64.515,23.913,61.4,23.913Zm.851-12.289a5.553,5.553,0,0,0-2.448.661v7.548a15.907,15.907,0,0,0,1.763.067c2.279,0,2.724-.965,2.724-2.631v-3.6C64.291,12.715,64.059,11.624,62.251,11.624ZM15.195,23.9c-2.828,0-4.585-1.826-4.585-4.765,0-3.061,1.6-4.426,5.184-4.426h3.384V14c0-1.6-.133-2.154-2.751-2.154H12.24l.409-4.084h4.576c2.819,0,4.525.447,5.532,1.449.924.92,1.318,2.362,1.318,4.821v9.7H19.994L19.817,22.7A9.307,9.307,0,0,1,15.195,23.9Zm1.8-5.921c-.987,0-1.489.169-1.489,1.092a1.192,1.192,0,0,0,1.353,1.359,4.507,4.507,0,0,0,2.113-.565l.207-.1v-1.79Zm76.433,5.9c-4.747,0-7.154-2.207-7.154-6.559V14.107c0-4.354,2.407-6.562,7.154-6.562,2.625,0,4.549.684,5.719,2.032a6.719,6.719,0,0,1,1.407,4.53v3.215a6.715,6.715,0,0,1-1.407,4.528C97.975,23.2,96.051,23.881,93.426,23.881ZM93.41,11.624c-1.851,0-2.24,1.11-2.24,2.041V17.8c0,.933.389,2.046,2.24,2.046s2.247-1.112,2.247-2.046v-4.13C95.657,12.734,95.268,11.624,93.41,11.624ZM77.749,23.881c-4.747,0-7.154-2.207-7.154-6.559V14.107c0-4.354,2.407-6.562,7.154-6.562,2.625,0,4.549.684,5.719,2.032a6.721,6.721,0,0,1,1.406,4.53v3.215a6.716,6.716,0,0,1-1.406,4.528C82.3,23.2,80.374,23.881,77.749,23.881Zm-.016-12.256c-1.854,0-2.243,1.11-2.243,2.041V17.8c0,.933.389,2.046,2.243,2.046s2.242-1.112,2.242-2.046v-4.13C79.975,12.734,79.586,11.624,77.733,11.624ZM106.851,23.7h-4.9V1.227l4.9-.817V14.878l4.487-7.113h5.3l-4.9,7.762,4.9,8.172-5.3,0-4.487-7.491V23.7Zm-99.508,0h-4.9V11.849H0V7.765H2.447V5.313A5.568,5.568,0,0,1,3.628,1.407,5.305,5.305,0,0,1,7.752,0h3.267V4.085H8.977c-1.552,0-1.628.591-1.628,1.635L7.342,7.765h3.7l-.432,4.083H7.342V23.7Zm111.807-.4h-.269V21.61l.014,0a2.986,2.986,0,0,1,.463-.038.912.912,0,0,1,.525.128.408.408,0,0,1,.152.348.419.419,0,0,1-.328.411v.013c.151.028.249.169.282.409a1.423,1.423,0,0,0,.106.416h-.281a1.273,1.273,0,0,1-.114-.431.315.315,0,0,0-.363-.3h-.186V23.3Zm.194-1.519a1.348,1.348,0,0,0-.194.013v.572h.194c.259,0,.408-.106.408-.29C119.751,22,119.722,21.778,119.344,21.778Z" transform="translate(0 0)"/>
</svg>
